# xmcd CD database file
#
# Track frame offsets:
#	150
#	12555
#	24900
#	37520
#	49740
#	62395
#	72450
#	84282
#	95450
#	106965
#	119887
#	132532
#	144620
#	156595
#	168405
#	182700
#	194635
#	205535
#	216142
#	228787
#	242850
#	254012
#	266902
#	278677
#	290175
#
# Disc length: 4004 seconds
#
# Revision: 0
# Processed by: cddbd v1.4PL0 Copyright (c) Steve Scherf et al.
# Submitted via: CDex 1.50Beta7
#
DISCID=7b0fa219
DTITLE=The Platters - The Magic Touch: An Anthology - 2
DYEAR=2000
DGENRE=Blues
TTITLE0=Twilight Time
TTITLE1=You're Making A Mistake
TTITLE2=My Old Flame
TTITLE3=I Wish
TTITLE4=It's Raining Outside (Chove La Fora)
TTITLE5=For The First Time (Come Prima)
TTITLE6=Smoke Gets In Your Eyes
TTITLE7=No Matter What You Are
TTITLE8=Sixteen Tons
TTITLE9=Enchanted
TTITLE10=Remember When
TTITLE11=Where
TTITLE12=Wish It Were Me
TTITLE13=My Secret
TTITLE14=Harbor Lights
TTITLE15=Sleepy Lagoon
TTITLE16=Ebb Tide
TTITLE17=Red Sails In The Sunset
TTITLE18=To Each His Own
TTITLE19=If I Didn't Care
TTITLE20=Trees
TTITLE21=I'll Never Smile Again
TTITLE22=When You Return
TTITLE23=It's Magic
TTITLE24=La Hora De Crepusculo (Twilight Time)
EXTD=YEAR: 2000
EXTT0=
EXTT1=
EXTT2=
EXTT3=
EXTT4=
EXTT5=
EXTT6=
EXTT7=
EXTT8=
EXTT9=
EXTT10=
EXTT11=
EXTT12=
EXTT13=
EXTT14=
EXTT15=
EXTT16=
EXTT17=
EXTT18=
EXTT19=
EXTT20=
EXTT21=
EXTT22=
EXTT23=
EXTT24=
PLAYORDER=
